<svg width="1200" height="630" viewBox="0 0 1200 630" xmlns="http://www.w3.org/2000/svg"><mask id="satori_om-id"><rect x="0" y="0" width="1200" height="630" fill="#fff"/></mask><rect x="0" y="0" width="1200" height="630" fill="#1B4332"/><mask id="satori_om-id-0"><rect x="382" y="242" width="437" height="58" fill="#fff"/></mask><g  ><path fill="#fff" d="M392.4 289L385.0 289L385.0 254.1L392.4 254.1L392.4 268.5L407.4 268.5L407.4 254.1L414.8 254.1L414.8 289L407.4 289L407.4 274.6L392.4 274.6L392.4 289ZM432.5 289.5L432.5 289.5Q428.6 289.5 425.7 287.8Q422.8 286.1 421.2 283.1Q419.7 280.0 419.7 276.0L419.7 276.0Q419.7 272.0 421.2 268.9Q422.8 265.9 425.7 264.2Q428.6 262.5 432.5 262.5L432.5 262.5Q436.5 262.5 439.4 264.2Q442.3 265.9 443.9 268.9Q445.4 272.0 445.4 276.0L445.4 276.0Q445.4 280.0 443.9 283.1Q442.3 286.1 439.4 287.8Q436.5 289.5 432.5 289.5ZM432.6 283.9L432.6 283.9Q434.4 283.9 435.6 282.9Q436.8 281.8 437.4 280.0Q438.0 278.2 438.0 276.0L438.0 276.0Q438.0 273.7 437.4 271.9Q436.8 270.1 435.6 269.1Q434.4 268.0 432.6 268.0L432.6 268.0Q430.8 268.0 429.5 269.1Q428.3 270.1 427.7 271.9Q427.0 273.7 427.0 276.0L427.0 276.0Q427.0 278.2 427.7 280.0Q428.3 281.8 429.5 282.9Q430.8 283.9 432.6 283.9ZM471.9 270.3L471.9 270.3L465.3 270.7Q465.1 269.8 464.6 269.2Q464.0 268.5 463.1 268.0Q462.2 267.6 460.9 267.6L460.9 267.6Q459.2 267.6 458.1 268.3Q456.9 269.0 456.9 270.2L456.9 270.2Q456.9 271.2 457.7 271.8Q458.4 272.4 460.2 272.8L460.2 272.8L465.0 273.8Q468.8 274.6 470.7 276.3Q472.5 278.1 472.5 280.9L472.5 280.9Q472.5 283.5 471.0 285.4Q469.5 287.3 466.9 288.4Q464.3 289.5 460.9 289.5L460.9 289.5Q455.7 289.5 452.6 287.3Q449.5 285.2 449.0 281.4L449.0 281.4L456.1 281.0Q456.5 282.6 457.7 283.5Q459.0 284.3 460.9 284.3L460.9 284.3Q462.8 284.3 464.0 283.5Q465.1 282.8 465.2 281.6L465.2 281.6Q465.1 280.6 464.3 280.0Q463.5 279.4 461.8 279.0L461.8 279.0L457.3 278.1Q453.4 277.3 451.6 275.4Q449.7 273.6 449.7 270.6L449.7 270.6Q449.7 268.1 451.1 266.3Q452.4 264.5 454.9 263.5Q457.4 262.5 460.8 262.5L460.8 262.5Q465.8 262.5 468.6 264.6Q471.5 266.7 471.9 270.3ZM498.9 270.3L498.9 270.3L492.3 270.7Q492.1 269.8 491.5 269.2Q491.0 268.5 490.1 268.0Q489.1 267.6 487.9 267.6L487.9 267.6Q486.2 267.6 485.0 268.3Q483.9 269.0 483.9 270.2L483.9 270.2Q483.9 271.2 484.6 271.8Q485.4 272.4 487.2 272.8L487.2 272.8L491.9 273.8Q495.8 274.6 497.6 276.3Q499.5 278.1 499.5 280.9L499.5 280.9Q499.5 283.5 498.0 285.4Q496.5 287.3 493.9 288.4Q491.3 289.5 487.9 289.5L487.9 289.5Q482.7 289.5 479.6 287.3Q476.5 285.2 476.0 281.4L476.0 281.4L483.1 281.0Q483.4 282.6 484.7 283.5Q485.9 284.3 487.9 284.3L487.9 284.3Q489.8 284.3 490.9 283.5Q492.1 282.8 492.1 281.6L492.1 281.6Q492.1 280.6 491.3 280.0Q490.5 279.4 488.8 279.0L488.8 279.0L484.2 278.1Q480.4 277.3 478.5 275.4Q476.7 273.6 476.7 270.6L476.7 270.6Q476.7 268.1 478.0 266.3Q479.4 264.5 481.9 263.5Q484.4 262.5 487.8 262.5L487.8 262.5Q492.7 262.5 495.6 264.6Q498.4 266.7 498.9 270.3ZM511.6 289.5L511.6 289.5Q509.1 289.5 507.1 288.6Q505.1 287.7 504.0 286.0Q502.9 284.3 502.9 281.7L502.9 281.7Q502.9 279.5 503.7 278.0Q504.5 276.5 505.9 275.6Q507.2 274.7 509.0 274.3Q510.8 273.8 512.7 273.6L512.7 273.6Q515.0 273.4 516.4 273.2Q517.8 273.0 518.4 272.5Q519.0 272.1 519.0 271.3L519.0 271.3L519.0 271.2Q519.0 269.6 518.0 268.7Q517.0 267.8 515.2 267.8L515.2 267.8Q513.2 267.8 512.0 268.6Q510.9 269.5 510.5 270.8L510.5 270.8L503.8 270.3Q504.3 267.9 505.8 266.1Q507.3 264.4 509.7 263.4Q512.1 262.5 515.2 262.5L515.2 262.5Q517.4 262.5 519.4 263.0Q521.4 263.5 522.9 264.6Q524.5 265.6 525.4 267.3Q526.3 269.0 526.3 271.3L526.3 271.3L526.3 289L519.4 289L519.4 285.4L519.2 285.4Q518.6 286.6 517.5 287.5Q516.5 288.5 515.0 289.0Q513.5 289.5 511.6 289.5ZM513.6 284.5L513.6 284.5Q515.2 284.5 516.5 283.8Q517.7 283.2 518.4 282.1Q519.1 281.0 519.1 279.6L519.1 279.6L519.1 276.9Q518.8 277.1 518.2 277.3Q517.6 277.4 516.8 277.6Q516.1 277.7 515.4 277.8Q514.6 278.0 514.1 278.0L514.1 278.0Q512.8 278.2 511.8 278.6Q510.9 279.0 510.3 279.7Q509.8 280.4 509.8 281.4L509.8 281.4Q509.8 282.9 510.9 283.7Q512.0 284.5 513.6 284.5ZM539.2 289L531.9 289L531.9 262.8L538.9 262.8L538.9 267.4L539.2 267.4Q540.0 265.1 541.9 263.8Q543.8 262.5 546.5 262.5L546.5 262.5Q549.2 262.5 551.1 263.8Q552.9 265.2 553.6 267.4L553.6 267.4L553.9 267.4Q554.7 265.2 556.8 263.8Q558.9 262.5 561.7 262.5L561.7 262.5Q565.4 262.5 567.7 264.8Q570.0 267.1 570.0 271.4L570.0 271.4L570.0 289L562.7 289L562.7 272.8Q562.7 270.6 561.6 269.6Q560.4 268.5 558.7 268.5L558.7 268.5Q556.7 268.5 555.6 269.7Q554.5 271.0 554.5 273.0L554.5 273.0L554.5 289L547.5 289L547.5 272.7Q547.5 270.7 546.4 269.6Q545.3 268.5 543.5 268.5L543.5 268.5Q542.3 268.5 541.3 269.1Q540.3 269.7 539.8 270.8Q539.2 271.8 539.2 273.3L539.2 273.3L539.2 289Z M601.8 262.1L593.0 289L585.1 289L597.1 254.1L606.7 254.1L618.7 289L610.8 289L602.0 262.1L601.8 262.1ZM592.5 281.0L592.5 275.3L611.2 275.3L611.2 281.0L592.5 281.0ZM630.0 289L622.9 289L622.9 254.1L630.1 254.1L630.1 267.2L630.4 267.2Q630.8 266.2 631.8 265.1Q632.7 264.0 634.1 263.2Q635.6 262.5 637.8 262.5L637.8 262.5Q640.7 262.5 643.1 264.0Q645.5 265.5 647.0 268.5Q648.4 271.4 648.4 275.9L648.4 275.9Q648.4 280.3 647.0 283.3Q645.6 286.3 643.2 287.9Q640.8 289.4 637.8 289.4L637.8 289.4Q635.7 289.4 634.2 288.7Q632.7 288.0 631.8 287.0Q630.9 285.9 630.4 284.8L630.4 284.8L630.0 284.8L630.0 289ZM630.0 275.9L630.0 275.9Q630.0 278.2 630.6 280.0Q631.3 281.7 632.5 282.7Q633.7 283.6 635.5 283.6L635.5 283.6Q637.3 283.6 638.5 282.7Q639.7 281.7 640.4 279.9Q641.0 278.2 641.0 275.9L641.0 275.9Q641.0 273.6 640.4 271.9Q639.7 270.2 638.5 269.2Q637.3 268.3 635.5 268.3L635.5 268.3Q633.7 268.3 632.5 269.2Q631.3 270.1 630.6 271.9Q630.0 273.6 630.0 275.9ZM662.9 289.4L662.9 289.4Q659.9 289.4 657.5 287.9Q655.1 286.3 653.7 283.3Q652.3 280.3 652.3 275.9L652.3 275.9Q652.3 271.4 653.7 268.5Q655.2 265.5 657.6 264.0Q660.0 262.5 662.9 262.5L662.9 262.5Q665.1 262.5 666.5 263.2Q668.0 264.0 668.9 265.1Q669.8 266.2 670.3 267.2L670.3 267.2L670.5 267.2L670.5 254.1L677.8 254.1L677.8 289L670.6 289L670.6 284.8L670.3 284.8Q669.8 285.9 668.9 287.0Q668.0 288.0 666.5 288.7Q665.0 289.4 662.9 289.4ZM665.2 283.6L665.2 283.6Q666.9 283.6 668.2 282.7Q669.4 281.7 670.0 280.0Q670.7 278.2 670.7 275.9L670.7 275.9Q670.7 273.6 670.1 271.9Q669.4 270.1 668.2 269.2Q666.9 268.3 665.2 268.3L665.2 268.3Q663.4 268.3 662.2 269.2Q660.9 270.2 660.3 271.9Q659.7 273.6 659.7 275.9L659.7 275.9Q659.7 278.2 660.3 279.9Q661.0 281.7 662.2 282.7Q663.4 283.6 665.2 283.6ZM695.7 289.5L695.7 289.5Q691.6 289.5 688.7 287.9Q685.8 286.2 684.2 283.2Q682.7 280.2 682.7 276.0L682.7 276.0Q682.7 272.0 684.2 268.9Q685.8 265.9 688.7 264.2Q691.5 262.5 695.4 262.5L695.4 262.5Q698.0 262.5 700.2 263.3Q702.5 264.1 704.1 265.8Q705.8 267.4 706.7 269.9Q707.7 272.4 707.7 275.8L707.7 275.8L707.7 277.8L685.6 277.8L685.6 273.3L700.9 273.3Q700.9 271.7 700.2 270.5Q699.5 269.3 698.3 268.6Q697.1 267.9 695.5 267.9L695.5 267.9Q693.8 267.9 692.6 268.7Q691.3 269.4 690.6 270.7Q689.9 272.0 689.9 273.5L689.9 273.5L689.9 277.8Q689.9 279.7 690.6 281.1Q691.3 282.6 692.6 283.3Q694.0 284.1 695.8 284.1L695.8 284.1Q697.0 284.1 698.0 283.8Q699.0 283.4 699.7 282.7Q700.4 282.0 700.8 281.1L700.8 281.1L707.5 281.5Q707.0 283.9 705.4 285.7Q703.9 287.5 701.4 288.5Q698.9 289.5 695.7 289.5ZM712.4 254.1L719.7 254.1L719.7 289L712.4 289L712.4 254.1ZM732.9 289.5L732.9 289.5Q730.4 289.5 728.5 288.6Q726.5 287.7 725.4 286.0Q724.3 284.3 724.3 281.7L724.3 281.7Q724.3 279.5 725.1 278.0Q725.9 276.5 727.2 275.6Q728.6 274.7 730.4 274.3Q732.1 273.8 734.1 273.6L734.1 273.6Q736.4 273.4 737.8 273.2Q739.2 273.0 739.8 272.5Q740.4 272.1 740.4 271.3L740.4 271.3L740.4 271.2Q740.4 269.6 739.4 268.7Q738.4 267.8 736.5 267.8L736.5 267.8Q734.6 267.8 733.4 268.6Q732.3 269.5 731.9 270.8L731.9 270.8L725.2 270.3Q725.7 267.9 727.2 266.1Q728.7 264.4 731.1 263.4Q733.4 262.5 736.6 262.5L736.6 262.5Q738.8 262.5 740.8 263.0Q742.8 263.5 744.3 264.6Q745.9 265.6 746.8 267.3Q747.7 269.0 747.7 271.3L747.7 271.3L747.7 289L740.8 289L740.8 285.4L740.6 285.4Q740.0 286.6 738.9 287.5Q737.9 288.5 736.4 289.0Q734.9 289.5 732.9 289.5ZM735.0 284.5L735.0 284.5Q736.6 284.5 737.9 283.8Q739.1 283.2 739.8 282.1Q740.5 281.0 740.5 279.6L740.5 279.6L740.5 276.9Q740.1 277.1 739.6 277.3Q739.0 277.4 738.2 277.6Q737.5 277.7 736.8 277.8Q736.0 278.0 735.4 278.0L735.4 278.0Q734.2 278.2 733.2 278.6Q732.2 279.0 731.7 279.7Q731.2 280.4 731.2 281.4L731.2 281.4Q731.2 282.9 732.3 283.7Q733.4 284.5 735.0 284.5ZM775.2 289L753.2 289L753.2 284.7L766.0 268.8L766.0 268.6L753.6 268.6L753.6 262.8L774.8 262.8L774.8 267.5L762.7 283.0L762.7 283.2L775.2 283.2L775.2 289ZM788.0 289L780.8 289L780.8 262.8L788.0 262.8L788.0 289ZM784.4 259.4L784.4 259.4Q782.8 259.4 781.7 258.4Q780.5 257.3 780.5 255.8L780.5 255.8Q780.5 254.3 781.7 253.2Q782.8 252.1 784.4 252.1L784.4 252.1Q786.0 252.1 787.2 253.2Q788.3 254.3 788.3 255.8L788.3 255.8Q788.3 257.3 787.2 258.4Q786.0 259.4 784.4 259.4ZM815.7 289L793.7 289L793.7 284.7L806.5 268.8L806.5 268.6L794.1 268.6L794.1 262.8L815.3 262.8L815.3 267.5L803.2 283.0L803.2 283.2L815.7 283.2L815.7 289Z "/></g><mask id="satori_om-id-1"><rect x="464" y="320" width="273" height="34" fill="#fff"/></mask><g  ><path fill="#fff" d="M470.1 347L465.8 347L465.8 326.6L479.3 326.6L479.3 330.2L470.1 330.2L470.1 335.0L478.4 335.0L478.4 338.6L470.1 338.6L470.1 347ZM486.0 347L481.8 347L481.8 331.7L485.9 331.7L485.9 334.4L486.1 334.4Q486.5 333.0 487.5 332.2Q488.5 331.5 489.7 331.5L489.7 331.5Q490.1 331.5 490.4 331.5Q490.8 331.6 491.1 331.7L491.1 331.7L491.1 335.4Q490.8 335.3 490.2 335.3Q489.7 335.2 489.3 335.2L489.3 335.2Q488.4 335.2 487.6 335.6Q486.9 336.0 486.5 336.7Q486.0 337.4 486.0 338.4L486.0 338.4L486.0 347ZM499.4 347.3L499.4 347.3Q497.1 347.3 495.4 346.3Q493.7 345.3 492.8 343.5Q491.9 341.8 491.9 339.4L491.9 339.4Q491.9 337.1 492.8 335.3Q493.7 333.5 495.4 332.5Q497.1 331.5 499.4 331.5L499.4 331.5Q501.8 331.5 503.4 332.5Q505.1 333.5 506.0 335.3Q507.0 337.1 507.0 339.4L507.0 339.4Q507.0 341.8 506.0 343.5Q505.1 345.3 503.4 346.3Q501.8 347.3 499.4 347.3ZM499.5 344.0L499.5 344.0Q500.5 344.0 501.2 343.4Q501.9 342.8 502.3 341.8Q502.6 340.7 502.6 339.4L502.6 339.4Q502.6 338.1 502.3 337.0Q501.9 336.0 501.2 335.4Q500.5 334.8 499.5 334.8L499.5 334.8Q498.4 334.8 497.7 335.4Q497.0 336.0 496.6 337.0Q496.2 338.1 496.2 339.4L496.2 339.4Q496.2 340.7 496.6 341.8Q497.0 342.8 497.7 343.4Q498.4 344.0 499.5 344.0ZM514.0 338.2L514.0 338.2L514.0 347L509.7 347L509.7 331.7L513.8 331.7L513.8 334.4L513.9 334.4Q514.4 333.1 515.6 332.3Q516.8 331.5 518.5 331.5L518.5 331.5Q520.1 331.5 521.3 332.2Q522.5 332.9 523.1 334.2Q523.8 335.5 523.8 337.3L523.8 337.3L523.8 347L519.6 347L519.6 338.0Q519.6 336.6 518.8 335.8Q518.1 335.0 516.8 335.0L516.8 335.0Q516.0 335.0 515.3 335.4Q514.7 335.8 514.3 336.5Q514.0 337.2 514.0 338.2ZM526.1 331.7L535.3 331.7L535.3 334.9L526.1 334.9L526.1 331.7ZM528.1 342.9L528.1 328.1L532.4 328.1L532.4 342.3Q532.4 342.9 532.6 343.2Q532.7 343.5 533.1 343.7Q533.4 343.8 533.8 343.8L533.8 343.8Q534.1 343.8 534.4 343.7Q534.7 343.7 534.9 343.7L534.9 343.7L535.5 346.8Q535.2 346.9 534.6 347.0Q534.1 347.2 533.2 347.2L533.2 347.2Q531.7 347.3 530.6 346.8Q529.4 346.3 528.8 345.3Q528.1 344.4 528.1 342.9L528.1 342.9ZM544.8 347.3L544.8 347.3Q542.5 347.3 540.8 346.3Q539.1 345.4 538.1 343.6Q537.2 341.8 537.2 339.4L537.2 339.4Q537.2 337.1 538.1 335.3Q539.1 333.5 540.7 332.5Q542.4 331.5 544.6 331.5L544.6 331.5Q546.2 331.5 547.5 332.0Q548.8 332.5 549.7 333.5Q550.7 334.4 551.3 335.9Q551.8 337.3 551.8 339.3L551.8 339.3L551.8 340.4L538.9 340.4L538.9 337.8L547.8 337.8Q547.8 336.9 547.4 336.2Q547.0 335.5 546.3 335.1Q545.6 334.7 544.7 334.7L544.7 334.7Q543.7 334.7 543.0 335.1Q542.3 335.6 541.8 336.3Q541.4 337.1 541.4 338.0L541.4 338.0L541.4 340.5Q541.4 341.6 541.8 342.4Q542.3 343.2 543.0 343.7Q543.8 344.1 544.9 344.1L544.9 344.1Q545.6 344.1 546.2 343.9Q546.8 343.7 547.2 343.3Q547.6 342.9 547.8 342.4L547.8 342.4L551.7 342.6Q551.4 344.0 550.5 345.1Q549.6 346.1 548.1 346.7Q546.7 347.3 544.8 347.3ZM558.8 338.2L558.8 338.2L558.8 347L554.6 347L554.6 331.7L558.6 331.7L558.6 334.4L558.8 334.4Q559.3 333.1 560.5 332.3Q561.7 331.5 563.4 331.5L563.4 331.5Q565.0 331.5 566.2 332.2Q567.3 332.9 568.0 334.2Q568.7 335.5 568.7 337.3L568.7 337.3L568.7 347L564.4 347L564.4 338.0Q564.4 336.6 563.7 335.8Q563.0 335.0 561.7 335.0L561.7 335.0Q560.9 335.0 560.2 335.4Q559.6 335.8 559.2 336.5Q558.8 337.2 558.8 338.2ZM577.6 347.2L577.6 347.2Q575.9 347.2 574.5 346.3Q573.1 345.4 572.2 343.7Q571.4 341.9 571.4 339.4L571.4 339.4Q571.4 336.8 572.3 335.0Q573.1 333.3 574.5 332.4Q575.9 331.5 577.6 331.5L577.6 331.5Q578.9 331.5 579.8 332.0Q580.6 332.4 581.1 333.0Q581.7 333.7 582.0 334.3L582.0 334.3L582.1 334.3L582.1 326.6L586.3 326.6L586.3 347L582.1 347L582.1 344.6L582.0 344.6Q581.7 345.2 581.1 345.8Q580.6 346.4 579.7 346.8Q578.9 347.2 577.6 347.2ZM579.0 343.9L579.0 343.9Q580.0 343.9 580.7 343.3Q581.4 342.8 581.8 341.7Q582.2 340.7 582.2 339.4L582.2 339.4Q582.2 338.0 581.8 337.0Q581.4 336.0 580.7 335.4Q580.0 334.9 579.0 334.9L579.0 334.9Q577.9 334.9 577.2 335.5Q576.5 336.0 576.1 337.0Q575.8 338.0 575.8 339.4L575.8 339.4Q575.8 340.7 576.1 341.7Q576.5 342.7 577.2 343.3Q577.9 343.9 579.0 343.9Z M604.7 347L604.7 347L597.5 347L597.5 326.6L604.8 326.6Q607.8 326.6 610.1 327.9Q612.3 329.1 613.5 331.3Q614.7 333.6 614.7 336.8L614.7 336.8Q614.7 340.0 613.5 342.3Q612.3 344.6 610.0 345.8Q607.8 347 604.7 347ZM601.8 330.3L601.8 343.3L604.5 343.3Q606.4 343.3 607.7 342.6Q609.1 341.9 609.7 340.5Q610.4 339.1 610.4 336.8L610.4 336.8Q610.4 334.5 609.7 333.1Q609.1 331.7 607.7 331.0Q606.4 330.3 604.5 330.3L604.5 330.3L601.8 330.3ZM624.7 347.3L624.7 347.3Q622.4 347.3 620.7 346.3Q619.0 345.4 618.1 343.6Q617.2 341.8 617.2 339.4L617.2 339.4Q617.2 337.1 618.1 335.3Q619.0 333.5 620.6 332.5Q622.3 331.5 624.6 331.5L624.6 331.5Q626.1 331.5 627.4 332.0Q628.7 332.5 629.7 333.5Q630.6 334.4 631.2 335.9Q631.7 337.3 631.7 339.3L631.7 339.3L631.7 340.4L618.8 340.4L618.8 337.8L627.8 337.8Q627.8 336.9 627.4 336.2Q627.0 335.5 626.3 335.1Q625.6 334.7 624.6 334.7L624.6 334.7Q623.7 334.7 622.9 335.1Q622.2 335.6 621.8 336.3Q621.4 337.1 621.3 338.0L621.3 338.0L621.3 340.5Q621.3 341.6 621.8 342.4Q622.2 343.2 623.0 343.7Q623.7 344.1 624.8 344.1L624.8 344.1Q625.5 344.1 626.1 343.9Q626.7 343.7 627.1 343.3Q627.5 342.9 627.7 342.4L627.7 342.4L631.7 342.6Q631.4 344.0 630.4 345.1Q629.5 346.1 628.1 346.7Q626.6 347.3 624.7 347.3ZM643.8 331.7L648.3 331.7L643.0 347L638.2 347L632.9 331.7L637.3 331.7L640.5 342.7L640.7 342.7L643.8 331.7ZM656.9 347.3L656.9 347.3Q654.6 347.3 652.9 346.3Q651.2 345.4 650.3 343.6Q649.4 341.8 649.4 339.4L649.4 339.4Q649.4 337.1 650.3 335.3Q651.2 333.5 652.9 332.5Q654.5 331.5 656.8 331.5L656.8 331.5Q658.3 331.5 659.6 332.0Q660.9 332.5 661.9 333.5Q662.9 334.4 663.4 335.9Q663.9 337.3 663.9 339.3L663.9 339.3L663.9 340.4L651.1 340.4L651.1 337.8L660.0 337.8Q660.0 336.9 659.6 336.2Q659.2 335.5 658.5 335.1Q657.8 334.7 656.8 334.7L656.8 334.7Q655.9 334.7 655.1 335.1Q654.4 335.6 654.0 336.3Q653.6 337.1 653.5 338.0L653.5 338.0L653.5 340.5Q653.5 341.6 654.0 342.4Q654.4 343.2 655.2 343.7Q655.9 344.1 657.0 344.1L657.0 344.1Q657.7 344.1 658.3 343.9Q658.9 343.7 659.3 343.3Q659.7 342.9 659.9 342.4L659.9 342.4L663.9 342.6Q663.6 344.0 662.6 345.1Q661.7 346.1 660.3 346.7Q658.8 347.3 656.9 347.3ZM666.7 326.6L670.9 326.6L670.9 347L666.7 347L666.7 326.6ZM681.2 347.3L681.2 347.3Q678.9 347.3 677.2 346.3Q675.5 345.3 674.6 343.5Q673.7 341.8 673.7 339.4L673.7 339.4Q673.7 337.1 674.6 335.3Q675.5 333.5 677.2 332.5Q678.9 331.5 681.2 331.5L681.2 331.5Q683.5 331.5 685.2 332.5Q686.9 333.5 687.8 335.3Q688.7 337.1 688.7 339.4L688.7 339.4Q688.7 341.8 687.8 343.5Q686.9 345.3 685.2 346.3Q683.5 347.3 681.2 347.3ZM681.2 344.0L681.2 344.0Q682.3 344.0 683.0 343.4Q683.7 342.8 684.1 341.8Q684.4 340.7 684.4 339.4L684.4 339.4Q684.4 338.1 684.1 337.0Q683.7 336.0 683.0 335.4Q682.3 334.8 681.2 334.8L681.2 334.8Q680.2 334.8 679.5 335.4Q678.7 336.0 678.4 337.0Q678.0 338.1 678.0 339.4L678.0 339.4Q678.0 340.7 678.4 341.8Q678.7 342.8 679.5 343.4Q680.2 344.0 681.2 344.0ZM695.7 352.7L691.5 352.7L691.5 331.7L695.7 331.7L695.7 334.3L695.9 334.3Q696.2 333.7 696.7 333.0Q697.2 332.4 698.1 332.0Q698.9 331.5 700.2 331.5L700.2 331.5Q701.9 331.5 703.3 332.4Q704.7 333.3 705.6 335.0Q706.4 336.8 706.4 339.4L706.4 339.4Q706.4 341.9 705.6 343.7Q704.8 345.4 703.4 346.3Q702.0 347.2 700.2 347.2L700.2 347.2Q699.0 347.2 698.1 346.8Q697.3 346.4 696.7 345.8Q696.2 345.2 695.9 344.6L695.9 344.6L695.7 344.6L695.7 352.7ZM695.7 339.4L695.7 339.4Q695.7 340.7 696.0 341.7Q696.4 342.8 697.1 343.3Q697.8 343.9 698.9 343.9L698.9 343.9Q699.9 343.9 700.6 343.3Q701.3 342.7 701.7 341.7Q702.1 340.7 702.1 339.4L702.1 339.4Q702.1 338.0 701.7 337.0Q701.3 336.0 700.6 335.5Q699.9 334.9 698.9 334.9L698.9 334.9Q697.8 334.9 697.1 335.4Q696.4 336.0 696.0 337.0Q695.7 338.0 695.7 339.4ZM716.2 347.3L716.2 347.3Q713.8 347.3 712.1 346.3Q710.4 345.4 709.5 343.6Q708.6 341.8 708.6 339.4L708.6 339.4Q708.6 337.1 709.5 335.3Q710.4 333.5 712.1 332.5Q713.8 331.5 716.0 331.5L716.0 331.5Q717.5 331.5 718.8 332.0Q720.1 332.5 721.1 333.5Q722.1 334.4 722.6 335.9Q723.2 337.3 723.2 339.3L723.2 339.3L723.2 340.4L710.3 340.4L710.3 337.8L719.2 337.8Q719.2 336.9 718.8 336.2Q718.4 335.5 717.7 335.1Q717.0 334.7 716.1 334.7L716.1 334.7Q715.1 334.7 714.4 335.1Q713.6 335.6 713.2 336.3Q712.8 337.1 712.8 338.0L712.8 338.0L712.8 340.5Q712.8 341.6 713.2 342.4Q713.6 343.2 714.4 343.7Q715.2 344.1 716.2 344.1L716.2 344.1Q717.0 344.1 717.5 343.9Q718.1 343.7 718.5 343.3Q719.0 342.9 719.2 342.4L719.2 342.4L723.1 342.6Q722.8 344.0 721.9 345.1Q721.0 346.1 719.5 346.7Q718.1 347.3 716.2 347.3ZM730.2 347L726.0 347L726.0 331.7L730.1 331.7L730.1 334.4L730.2 334.4Q730.6 333.0 731.6 332.2Q732.6 331.5 733.9 331.5L733.9 331.5Q734.2 331.5 734.6 331.5Q734.9 331.6 735.2 331.7L735.2 331.7L735.2 335.4Q734.9 335.3 734.4 335.3Q733.9 335.2 733.4 335.2L733.4 335.2Q732.5 335.2 731.8 335.6Q731.0 336.0 730.6 336.7Q730.2 337.4 730.2 338.4L730.2 338.4L730.2 347Z "/></g><mask id="satori_om-id-2"><rect x="413" y="364" width="374" height="24" fill="#fff"/></mask><g opacity="0.8"></g><g  ><path fill="#fff" d="M417.3 383L414.3 383L414.3 368.5L420.0 368.5Q421.7 368.5 422.8 369.0Q424.0 369.6 424.6 370.7Q425.2 371.8 425.2 373.2L425.2 373.2Q425.2 374.7 424.6 375.7Q424.0 376.7 422.8 377.3Q421.6 377.8 419.9 377.8L419.9 377.8L416.1 377.8L416.1 375.4L419.4 375.4Q420.3 375.4 420.9 375.1Q421.5 374.9 421.8 374.4Q422.0 373.9 422.0 373.2L422.0 373.2Q422.0 372.5 421.8 372.0Q421.5 371.5 420.9 371.2Q420.3 371.0 419.4 371.0L419.4 371.0L417.3 371.0L417.3 383ZM418.8 376.4L422.1 376.4L425.7 383L422.3 383L418.8 376.4ZM432.1 383.2L432.1 383.2Q430.4 383.2 429.2 382.5Q428.0 381.8 427.4 380.6Q426.7 379.3 426.7 377.6L426.7 377.6Q426.7 375.9 427.4 374.6Q428.0 373.4 429.2 372.7Q430.4 371.9 432.0 371.9L432.0 371.9Q433.1 371.9 434.0 372.3Q434.9 372.6 435.6 373.3Q436.3 374.0 436.7 375.1Q437.1 376.1 437.1 377.5L437.1 377.5L437.1 378.3L427.9 378.3L427.9 376.4L434.3 376.4Q434.3 375.8 434.0 375.3Q433.7 374.8 433.2 374.5Q432.7 374.2 432.0 374.2L432.0 374.2Q431.4 374.2 430.8 374.5Q430.3 374.8 430.0 375.4Q429.7 375.9 429.7 376.5L429.7 376.5L429.7 378.3Q429.7 379.1 430.0 379.7Q430.3 380.3 430.9 380.6Q431.4 381.0 432.2 381.0L432.2 381.0Q432.7 381.0 433.1 380.8Q433.5 380.7 433.8 380.4Q434.1 380.1 434.3 379.7L434.3 379.7L437.1 379.9Q436.8 380.9 436.2 381.6Q435.5 382.4 434.5 382.8Q433.5 383.2 432.1 383.2ZM442.2 383.2L442.2 383.2Q441.2 383.2 440.4 382.8Q439.5 382.5 439.1 381.8Q438.6 381.0 438.6 380.0L438.6 380.0Q438.6 379.0 438.9 378.4Q439.3 377.8 439.8 377.4Q440.4 377.1 441.1 376.9Q441.9 376.7 442.7 376.6L442.7 376.6Q443.6 376.5 444.2 376.4Q444.8 376.3 445.1 376.1Q445.3 376.0 445.3 375.6L445.3 375.6L445.3 375.6Q445.3 374.9 444.9 374.5Q444.5 374.2 443.7 374.2L443.7 374.2Q442.9 374.2 442.4 374.5Q441.9 374.9 441.8 375.4L441.8 375.4L439.0 375.2Q439.2 374.2 439.8 373.5Q440.4 372.7 441.4 372.3Q442.4 371.9 443.7 371.9L443.7 371.9Q444.6 371.9 445.5 372.2Q446.3 372.4 447.0 372.8Q447.6 373.3 448.0 374.0Q448.4 374.7 448.4 375.6L448.4 375.6L448.4 383L445.5 383L445.5 381.5L445.4 381.5Q445.1 382.0 444.7 382.4Q444.3 382.8 443.6 383.0Q443.0 383.2 442.2 383.2ZM443.1 381.1L443.1 381.1Q443.7 381.1 444.3 380.9Q444.8 380.6 445.1 380.1Q445.4 379.7 445.4 379.1L445.4 379.1L445.4 377.9Q445.2 378.0 445.0 378.1Q444.7 378.2 444.4 378.2Q444.1 378.3 443.8 378.4Q443.5 378.4 443.2 378.4L443.2 378.4Q442.7 378.5 442.3 378.7Q441.9 378.9 441.7 379.1Q441.5 379.4 441.5 379.9L441.5 379.9Q441.5 380.5 441.9 380.8Q442.4 381.1 443.1 381.1ZM455.6 383.2L455.6 383.2Q454.0 383.2 452.8 382.5Q451.6 381.8 450.9 380.5Q450.3 379.2 450.3 377.6L450.3 377.6Q450.3 375.9 450.9 374.6Q451.6 373.4 452.8 372.7Q454.0 371.9 455.6 371.9L455.6 371.9Q457.0 371.9 458.1 372.5Q459.2 373.0 459.8 373.9Q460.4 374.9 460.5 376.1L460.5 376.1L457.7 376.1Q457.5 375.3 457.0 374.8Q456.5 374.3 455.7 374.3L455.7 374.3Q455.0 374.3 454.4 374.7Q453.9 375.1 453.6 375.8Q453.3 376.5 453.3 377.5L453.3 377.5Q453.3 378.6 453.6 379.3Q453.9 380.1 454.4 380.4Q455.0 380.8 455.7 380.8L455.7 380.8Q456.2 380.8 456.6 380.6Q457.0 380.4 457.3 380.0Q457.6 379.6 457.7 379.0L457.7 379.0L460.5 379.0Q460.4 380.3 459.8 381.2Q459.2 382.1 458.2 382.7Q457.1 383.2 455.6 383.2ZM461.7 372.1L468.3 372.1L468.3 374.4L461.7 374.4L461.7 372.1ZM463.2 380.0L463.2 369.5L466.2 369.5L466.2 379.6Q466.2 380.1 466.3 380.3Q466.5 380.5 466.7 380.6Q466.9 380.7 467.2 380.7L467.2 380.7Q467.4 380.7 467.7 380.7Q467.9 380.6 468.0 380.6L468.0 380.6L468.5 382.9Q468.2 382.9 467.8 383.0Q467.4 383.1 466.8 383.1L466.8 383.1Q465.7 383.2 464.9 382.9Q464.1 382.5 463.6 381.8Q463.2 381.1 463.2 380.0L463.2 380.0Z M478.5 380.3L478.5 380.3Q477.6 380.3 476.9 379.9Q476.2 379.5 475.8 378.8Q475.4 378.1 475.4 377.2L475.4 377.2Q475.4 376.3 475.8 375.6Q476.2 374.9 476.9 374.5Q477.6 374.1 478.5 374.1L478.5 374.1Q479.3 374.1 480.0 374.5Q480.8 374.9 481.2 375.6Q481.6 376.3 481.6 377.2L481.6 377.2Q481.6 378.1 481.2 378.8Q480.8 379.5 480.0 379.9Q479.3 380.3 478.5 380.3Z M498.1 368.5L501.2 368.5L501.2 383L498.5 383L492.2 373.8L492.1 373.8L492.1 383L489.0 383L489.0 368.5L491.7 368.5L498.0 377.6L498.1 377.6L498.1 368.5ZM508.6 383.2L508.6 383.2Q506.9 383.2 505.7 382.5Q504.5 381.8 503.9 380.6Q503.2 379.3 503.2 377.6L503.2 377.6Q503.2 375.9 503.9 374.6Q504.5 373.4 505.7 372.7Q506.9 371.9 508.5 371.9L508.5 371.9Q509.6 371.9 510.5 372.3Q511.5 372.6 512.2 373.3Q512.9 374.0 513.2 375.1Q513.6 376.1 513.6 377.5L513.6 377.5L513.6 378.3L504.4 378.3L504.4 376.4L510.8 376.4Q510.8 375.8 510.5 375.3Q510.2 374.8 509.7 374.5Q509.2 374.2 508.6 374.2L508.6 374.2Q507.9 374.2 507.3 374.5Q506.8 374.8 506.5 375.4Q506.2 375.9 506.2 376.5L506.2 376.5L506.2 378.3Q506.2 379.1 506.5 379.7Q506.8 380.3 507.4 380.6Q507.9 381.0 508.7 381.0L508.7 381.0Q509.2 381.0 509.6 380.8Q510.0 380.7 510.3 380.4Q510.6 380.1 510.8 379.7L510.8 379.7L513.6 379.9Q513.4 380.9 512.7 381.6Q512.0 382.4 511.0 382.8Q510.0 383.2 508.6 383.2ZM514.8 372.1L518.0 372.1L520.0 375.9L522.0 372.1L525.1 372.1L522.0 377.5L525.2 383L522.1 383L520.0 379.2L517.8 383L514.7 383L518.0 377.5L514.8 372.1ZM526.1 372.1L532.7 372.1L532.7 374.4L526.1 374.4L526.1 372.1ZM527.6 380.0L527.6 369.5L530.7 369.5L530.7 379.6Q530.7 380.1 530.8 380.3Q530.9 380.5 531.1 380.6Q531.4 380.7 531.7 380.7L531.7 380.7Q531.9 380.7 532.1 380.7Q532.3 380.6 532.4 380.6L532.4 380.6L532.9 382.9Q532.7 382.9 532.3 383.0Q531.9 383.1 531.3 383.1L531.3 383.1Q530.2 383.2 529.4 382.9Q528.5 382.5 528.1 381.8Q527.6 381.1 527.6 380.0L527.6 380.0ZM536.4 383.2L536.4 383.2Q535.7 383.2 535.2 382.7Q534.7 382.2 534.7 381.5L534.7 381.5Q534.7 380.8 535.2 380.3Q535.7 379.8 536.4 379.8L536.4 379.8Q537.1 379.8 537.6 380.3Q538.1 380.8 538.1 381.5L538.1 381.5Q538.1 381.9 537.9 382.3Q537.7 382.7 537.3 383.0Q536.9 383.2 536.4 383.2ZM540.6 383.5L540.6 372.1L543.7 372.1L543.7 383.5Q543.7 384.8 543.2 385.6Q542.7 386.4 541.7 386.7Q540.8 387.1 539.5 387.1L539.5 387.1Q539.4 387.1 539.2 387.1Q539.1 387.1 538.9 387.1L538.9 387.1L538.9 384.7Q539.0 384.7 539.1 384.7Q539.2 384.7 539.3 384.7L539.3 384.7Q540.0 384.7 540.3 384.4Q540.6 384.1 540.6 383.5L540.6 383.5ZM542.1 370.7L542.1 370.7Q541.5 370.7 541.0 370.2Q540.5 369.8 540.5 369.2L540.5 369.2Q540.5 368.5 541.0 368.1Q541.5 367.6 542.1 367.6L542.1 367.6Q542.8 367.6 543.3 368.1Q543.8 368.5 543.8 369.2L543.8 369.2Q543.8 369.8 543.3 370.2Q542.8 370.7 542.1 370.7ZM555.1 375.2L555.1 375.2L552.4 375.4Q552.3 375.0 552.1 374.7Q551.8 374.4 551.5 374.3Q551.1 374.1 550.5 374.1L550.5 374.1Q549.8 374.1 549.4 374.4Q548.9 374.7 548.9 375.2L548.9 375.2Q548.9 375.6 549.2 375.8Q549.5 376.1 550.3 376.3L550.3 376.3L552.2 376.7Q553.8 377.0 554.6 377.7Q555.4 378.4 555.4 379.6L555.4 379.6Q555.4 380.7 554.8 381.5Q554.1 382.3 553.0 382.8Q552.0 383.2 550.5 383.2L550.5 383.2Q548.4 383.2 547.1 382.3Q545.8 381.4 545.6 379.8L545.6 379.8L548.6 379.7Q548.7 380.3 549.2 380.7Q549.7 381.0 550.5 381.0L550.5 381.0Q551.3 381.0 551.8 380.7Q552.3 380.4 552.3 379.9L552.3 379.9Q552.3 379.5 552.0 379.2Q551.6 379.0 550.9 378.8L550.9 378.8L549.0 378.5Q547.4 378.1 546.7 377.4Q545.9 376.6 545.9 375.3L545.9 375.3Q545.9 374.3 546.4 373.5Q547.0 372.8 548.1 372.4Q549.1 371.9 550.5 371.9L550.5 371.9Q552.6 371.9 553.8 372.8Q554.9 373.7 555.1 375.2Z M565.6 380.3L565.6 380.3Q564.7 380.3 564.0 379.9Q563.3 379.5 562.9 378.8Q562.4 378.1 562.4 377.2L562.4 377.2Q562.4 376.3 562.9 375.6Q563.3 374.9 564.0 374.5Q564.7 374.1 565.6 374.1L565.6 374.1Q566.4 374.1 567.1 374.5Q567.8 374.9 568.3 375.6Q568.7 376.3 568.7 377.2L568.7 377.2Q568.7 378.1 568.3 378.8Q567.8 379.5 567.1 379.9Q566.4 380.3 565.6 380.3Z M580.0 371.0L575.5 371.0L575.5 368.5L587.5 368.5L587.5 371.0L583.0 371.0L583.0 383L580.0 383L580.0 371.0ZM590.0 387.1L590.0 387.1Q589.4 387.1 588.9 387.0Q588.4 386.9 588.1 386.8L588.1 386.8L588.8 384.5Q589.3 384.7 589.8 384.7Q590.2 384.7 590.5 384.5Q590.8 384.3 591.0 383.8L591.0 383.8L591.2 383.3L587.3 372.1L590.5 372.1L592.7 380.1L592.8 380.1L595.1 372.1L598.3 372.1L594.1 384.2Q593.8 385.1 593.3 385.7Q592.7 386.4 591.9 386.7Q591.1 387.1 590.0 387.1ZM602.9 387.1L599.9 387.1L599.9 372.1L602.9 372.1L602.9 373.9L603.0 373.9Q603.2 373.5 603.6 373.0Q604.0 372.6 604.6 372.3Q605.2 371.9 606.1 371.9L606.1 371.9Q607.3 371.9 608.3 372.6Q609.3 373.2 609.9 374.4Q610.5 375.7 610.5 377.6L610.5 377.6Q610.5 379.4 609.9 380.6Q609.3 381.9 608.3 382.5Q607.3 383.2 606.1 383.2L606.1 383.2Q605.2 383.2 604.6 382.9Q604.0 382.6 603.6 382.2Q603.2 381.7 603.0 381.3L603.0 381.3L602.9 381.3L602.9 387.1ZM602.8 377.5L602.8 377.5Q602.8 378.5 603.1 379.2Q603.4 380.0 603.9 380.4Q604.4 380.8 605.1 380.8L605.1 380.8Q605.9 380.8 606.4 380.4Q606.9 380.0 607.2 379.2Q607.4 378.5 607.4 377.5L607.4 377.5Q607.4 376.6 607.2 375.9Q606.9 375.2 606.4 374.8Q605.9 374.4 605.1 374.4L605.1 374.4Q604.4 374.4 603.9 374.7Q603.4 375.1 603.1 375.9Q602.8 376.6 602.8 377.5ZM617.5 383.2L617.5 383.2Q615.8 383.2 614.6 382.5Q613.4 381.8 612.7 380.6Q612.1 379.3 612.1 377.6L612.1 377.6Q612.1 375.9 612.7 374.6Q613.4 373.4 614.6 372.7Q615.8 371.9 617.4 371.9L617.4 371.9Q618.5 371.9 619.4 372.3Q620.3 372.6 621.0 373.3Q621.7 374.0 622.1 375.1Q622.5 376.1 622.5 377.5L622.5 377.5L622.5 378.3L613.3 378.3L613.3 376.4L619.7 376.4Q619.7 375.8 619.4 375.3Q619.1 374.8 618.6 374.5Q618.1 374.2 617.4 374.2L617.4 374.2Q616.7 374.2 616.2 374.5Q615.7 374.8 615.4 375.4Q615.1 375.9 615.1 376.5L615.1 376.5L615.1 378.3Q615.1 379.1 615.4 379.7Q615.7 380.3 616.2 380.6Q616.8 381.0 617.5 381.0L617.5 381.0Q618.0 381.0 618.5 380.8Q618.9 380.7 619.2 380.4Q619.5 380.1 619.6 379.7L619.6 379.7L622.4 379.9Q622.2 380.9 621.6 381.6Q620.9 382.4 619.9 382.8Q618.8 383.2 617.5 383.2ZM635.4 372.6L632.4 372.6Q632.3 371.8 631.7 371.3Q631.0 370.8 629.9 370.8L629.9 370.8Q629.2 370.8 628.7 371.0Q628.1 371.2 627.9 371.6Q627.6 372.0 627.6 372.5L627.6 372.5Q627.6 372.8 627.8 373.1Q628.0 373.4 628.3 373.6Q628.6 373.8 629.0 374.0Q629.4 374.2 629.9 374.3L629.9 374.3L631.2 374.6Q632.2 374.8 633.0 375.1Q633.8 375.5 634.3 376.0Q634.9 376.5 635.2 377.2Q635.6 377.9 635.6 378.8L635.6 378.8Q635.6 380.2 634.9 381.2Q634.2 382.1 633.0 382.7Q631.7 383.2 629.9 383.2L629.9 383.2Q628.2 383.2 626.9 382.7Q625.6 382.1 624.8 381.1Q624.1 380.0 624.1 378.4L624.1 378.4L627.0 378.4Q627.1 379.2 627.5 379.7Q627.8 380.1 628.5 380.4Q629.1 380.6 629.9 380.6L629.9 380.6Q630.7 380.6 631.2 380.4Q631.8 380.2 632.1 379.8Q632.5 379.4 632.5 378.8L632.5 378.8Q632.5 378.3 632.2 378.0Q631.9 377.7 631.3 377.4Q630.8 377.2 630.0 377.0L630.0 377.0L628.4 376.6Q626.6 376.2 625.5 375.2Q624.4 374.3 624.4 372.7L624.4 372.7Q624.4 371.3 625.2 370.4Q625.9 369.4 627.1 368.8Q628.4 368.3 630.0 368.3L630.0 368.3Q631.6 368.3 632.8 368.8Q634.0 369.4 634.7 370.4Q635.4 371.3 635.4 372.6L635.4 372.6ZM642.5 383.2L642.5 383.2Q640.8 383.2 639.6 382.5Q638.4 381.8 637.8 380.5Q637.1 379.2 637.1 377.6L637.1 377.6Q637.1 375.9 637.8 374.6Q638.4 373.4 639.6 372.7Q640.8 371.9 642.5 371.9L642.5 371.9Q643.9 371.9 645.0 372.5Q646.1 373.0 646.7 373.9Q647.3 374.9 647.4 376.1L647.4 376.1L644.5 376.1Q644.4 375.3 643.9 374.8Q643.4 374.3 642.5 374.3L642.5 374.3Q641.8 374.3 641.3 374.7Q640.8 375.1 640.5 375.8Q640.2 376.5 640.2 377.5L640.2 377.5Q640.2 378.6 640.5 379.3Q640.8 380.1 641.3 380.4Q641.8 380.8 642.5 380.8L642.5 380.8Q643.1 380.8 643.5 380.6Q643.9 380.4 644.2 380.0Q644.4 379.6 644.5 379.0L644.5 379.0L647.4 379.0Q647.3 380.3 646.7 381.2Q646.1 382.1 645.0 382.7Q644.0 383.2 642.5 383.2ZM652.3 383L649.3 383L649.3 372.1L652.3 372.1L652.3 374.0L652.4 374.0Q652.7 373.0 653.4 372.5Q654.1 371.9 655.0 371.9L655.0 371.9Q655.2 371.9 655.5 372.0Q655.7 372.0 655.9 372.0L655.9 372.0L655.9 374.7Q655.7 374.7 655.4 374.6Q655.0 374.6 654.7 374.6L654.7 374.6Q654.0 374.6 653.5 374.9Q653.0 375.1 652.6 375.6Q652.3 376.2 652.3 376.8L652.3 376.8L652.3 383ZM660.5 383L657.5 383L657.5 372.1L660.5 372.1L660.5 383ZM659.0 370.7L659.0 370.7Q658.3 370.7 657.9 370.2Q657.4 369.8 657.4 369.2L657.4 369.2Q657.4 368.5 657.9 368.1Q658.3 367.6 659.0 367.6L659.0 367.6Q659.7 367.6 660.2 368.1Q660.6 368.5 660.6 369.2L660.6 369.2Q660.6 369.8 660.2 370.2Q659.7 370.7 659.0 370.7ZM666.0 387.1L662.9 387.1L662.9 372.1L665.9 372.1L665.9 373.9L666.1 373.9Q666.3 373.5 666.6 373.0Q667.0 372.6 667.6 372.3Q668.2 371.9 669.2 371.9L669.2 371.9Q670.4 371.9 671.4 372.6Q672.4 373.2 673.0 374.4Q673.6 375.7 673.6 377.6L673.6 377.6Q673.6 379.4 673.0 380.6Q672.4 381.9 671.4 382.5Q670.4 383.2 669.2 383.2L669.2 383.2Q668.3 383.2 667.7 382.9Q667.0 382.6 666.7 382.2Q666.3 381.7 666.1 381.3L666.1 381.3L666.0 381.3L666.0 387.1ZM665.9 377.5L665.9 377.5Q665.9 378.5 666.2 379.2Q666.4 380.0 666.9 380.4Q667.5 380.8 668.2 380.8L668.2 380.8Q668.9 380.8 669.4 380.4Q670.0 380.0 670.2 379.2Q670.5 378.5 670.5 377.5L670.5 377.5Q670.5 376.6 670.2 375.9Q670.0 375.2 669.4 374.8Q668.9 374.4 668.2 374.4L668.2 374.4Q667.5 374.4 666.9 374.7Q666.4 375.1 666.2 375.9Q665.9 376.6 665.9 377.5ZM674.8 372.1L681.4 372.1L681.4 374.4L674.8 374.4L674.8 372.1ZM676.3 380.0L676.3 369.5L679.3 369.5L679.3 379.6Q679.3 380.1 679.5 380.3Q679.6 380.5 679.8 380.6Q680.1 380.7 680.4 380.7L680.4 380.7Q680.6 380.7 680.8 380.7Q681.0 380.6 681.1 380.6L681.1 380.6L681.6 382.9Q681.4 382.9 680.9 383.0Q680.5 383.1 679.9 383.1L679.9 383.1Q678.9 383.2 678.0 382.9Q677.2 382.5 676.8 381.8Q676.3 381.1 676.3 380.0L676.3 380.0Z M692.7 380.3L692.7 380.3Q691.8 380.3 691.1 379.9Q690.4 379.5 690.0 378.8Q689.5 378.1 689.5 377.2L689.5 377.2Q689.5 376.3 690.0 375.6Q690.4 374.9 691.1 374.5Q691.8 374.1 692.7 374.1L692.7 374.1Q693.5 374.1 694.2 374.5Q695.0 374.9 695.4 375.6Q695.8 376.3 695.8 377.2L695.8 377.2Q695.8 378.1 695.4 378.8Q695.0 379.5 694.2 379.9Q693.5 380.3 692.7 380.3Z M706.3 383L703.2 383L703.2 368.5L712.8 368.5L712.8 371.0L706.3 371.0L706.3 374.5L712.2 374.5L712.2 377.0L706.3 377.0L706.3 383ZM717.9 383L714.9 383L714.9 372.1L717.9 372.1L717.9 383ZM716.4 370.7L716.4 370.7Q715.7 370.7 715.2 370.2Q714.7 369.8 714.7 369.2L714.7 369.2Q714.7 368.5 715.2 368.1Q715.7 367.6 716.4 367.6L716.4 367.6Q717.0 367.6 717.5 368.1Q718.0 368.5 718.0 369.2L718.0 369.2Q718.0 369.8 717.5 370.2Q717.0 370.7 716.4 370.7ZM723.3 383L720.3 383L720.3 372.1L723.2 372.1L723.2 374.0L723.3 374.0Q723.6 373.0 724.3 372.5Q725.0 371.9 726.0 371.9L726.0 371.9Q726.2 371.9 726.5 372.0Q726.7 372.0 726.9 372.0L726.9 372.0L726.9 374.7Q726.7 374.7 726.3 374.6Q725.9 374.6 725.6 374.6L725.6 374.6Q725.0 374.6 724.4 374.9Q723.9 375.1 723.6 375.6Q723.3 376.2 723.3 376.8L723.3 376.8L723.3 383ZM732.9 383.2L732.9 383.2Q731.2 383.2 730.0 382.5Q728.8 381.8 728.2 380.6Q727.5 379.3 727.5 377.6L727.5 377.6Q727.5 375.9 728.2 374.6Q728.8 373.4 730.0 372.7Q731.2 371.9 732.8 371.9L732.8 371.9Q733.9 371.9 734.8 372.3Q735.8 372.6 736.5 373.3Q737.2 374.0 737.5 375.1Q737.9 376.1 737.9 377.5L737.9 377.5L737.9 378.3L728.7 378.3L728.7 376.4L735.1 376.4Q735.1 375.8 734.8 375.3Q734.5 374.8 734.0 374.5Q733.5 374.2 732.9 374.2L732.9 374.2Q732.2 374.2 731.6 374.5Q731.1 374.8 730.8 375.4Q730.5 375.9 730.5 376.5L730.5 376.5L730.5 378.3Q730.5 379.1 730.8 379.7Q731.1 380.3 731.7 380.6Q732.2 381.0 733.0 381.0L733.0 381.0Q733.5 381.0 733.9 380.8Q734.3 380.7 734.6 380.4Q734.9 380.1 735.1 379.7L735.1 379.7L737.9 379.9Q737.7 380.9 737.0 381.6Q736.3 382.4 735.3 382.8Q734.3 383.2 732.9 383.2ZM743.0 383L740.0 383L740.0 368.5L743.0 368.5L743.0 373.9L743.1 373.9Q743.3 373.5 743.7 373.0Q744.0 372.6 744.7 372.3Q745.3 371.9 746.2 371.9L746.2 371.9Q747.4 371.9 748.4 372.6Q749.4 373.2 750.0 374.4Q750.6 375.7 750.6 377.6L750.6 377.6Q750.6 379.4 750.0 380.6Q749.4 381.9 748.4 382.5Q747.4 383.2 746.2 383.2L746.2 383.2Q745.3 383.2 744.7 382.9Q744.1 382.6 743.7 382.2Q743.3 381.7 743.1 381.3L743.1 381.3L743.0 381.3L743.0 383ZM742.9 377.5L742.9 377.5Q742.9 378.5 743.2 379.2Q743.5 380.0 744.0 380.4Q744.5 380.8 745.2 380.8L745.2 380.8Q746.0 380.8 746.5 380.4Q747.0 380.0 747.3 379.2Q747.5 378.5 747.5 377.5L747.5 377.5Q747.5 376.6 747.3 375.9Q747.0 375.2 746.5 374.8Q746.0 374.4 745.2 374.4L745.2 374.4Q744.5 374.4 744.0 374.7Q743.5 375.1 743.2 375.9Q742.9 376.6 742.9 377.5ZM755.7 383.2L755.7 383.2Q754.7 383.2 753.9 382.8Q753.0 382.5 752.6 381.8Q752.1 381.0 752.1 380.0L752.1 380.0Q752.1 379.0 752.4 378.4Q752.8 377.8 753.3 377.4Q753.9 377.1 754.7 376.9Q755.4 376.7 756.2 376.6L756.2 376.6Q757.2 376.5 757.7 376.4Q758.3 376.3 758.6 376.1Q758.8 376.0 758.8 375.6L758.8 375.6L758.8 375.6Q758.8 374.9 758.4 374.5Q758.0 374.2 757.2 374.2L757.2 374.2Q756.4 374.2 755.9 374.5Q755.4 374.9 755.3 375.4L755.3 375.4L752.5 375.2Q752.7 374.2 753.3 373.5Q754.0 372.7 754.9 372.3Q755.9 371.9 757.2 371.9L757.2 371.9Q758.1 371.9 759.0 372.2Q759.8 372.4 760.5 372.8Q761.1 373.3 761.5 374.0Q761.9 374.7 761.9 375.6L761.9 375.6L761.9 383L759.0 383L759.0 381.5L758.9 381.5Q758.7 382.0 758.2 382.4Q757.8 382.8 757.2 383.0Q756.5 383.2 755.7 383.2ZM756.6 381.1L756.6 381.1Q757.3 381.1 757.8 380.9Q758.3 380.6 758.6 380.1Q758.9 379.7 758.9 379.1L758.9 379.1L758.9 377.9Q758.7 378.0 758.5 378.1Q758.2 378.2 757.9 378.2Q757.6 378.3 757.3 378.4Q757.0 378.4 756.8 378.4L756.8 378.4Q756.2 378.5 755.8 378.7Q755.4 378.9 755.2 379.1Q755.0 379.4 755.0 379.9L755.0 379.9Q755.0 380.5 755.4 380.8Q755.9 381.1 756.6 381.1ZM773.3 375.2L773.3 375.2L770.5 375.4Q770.5 375.0 770.2 374.7Q770.0 374.4 769.6 374.3Q769.2 374.1 768.7 374.1L768.7 374.1Q768.0 374.1 767.5 374.4Q767.0 374.7 767.0 375.2L767.0 375.2Q767.0 375.6 767.3 375.8Q767.7 376.1 768.4 376.3L768.4 376.3L770.4 376.7Q772.0 377.0 772.8 377.7Q773.5 378.4 773.5 379.6L773.5 379.6Q773.5 380.7 772.9 381.5Q772.3 382.3 771.2 382.8Q770.1 383.2 768.7 383.2L768.7 383.2Q766.5 383.2 765.2 382.3Q764.0 381.4 763.7 379.8L763.7 379.8L766.7 379.7Q766.8 380.3 767.4 380.7Q767.9 381.0 768.7 381.0L768.7 381.0Q769.5 381.0 770.0 380.7Q770.5 380.4 770.5 379.9L770.5 379.9Q770.5 379.5 770.1 379.2Q769.8 379.0 769.1 378.8L769.1 378.8L767.2 378.5Q765.6 378.1 764.8 377.4Q764.0 376.6 764.0 375.3L764.0 375.3Q764.0 374.3 764.6 373.5Q765.2 372.8 766.2 372.4Q767.3 371.9 768.7 371.9L768.7 371.9Q770.7 371.9 771.9 372.8Q773.1 373.7 773.3 375.2ZM780.4 383.2L780.4 383.2Q778.7 383.2 777.5 382.5Q776.3 381.8 775.7 380.6Q775.0 379.3 775.0 377.6L775.0 377.6Q775.0 375.9 775.7 374.6Q776.3 373.4 777.5 372.7Q778.7 371.9 780.3 371.9L780.3 371.9Q781.4 371.9 782.3 372.3Q783.3 372.6 784.0 373.3Q784.7 374.0 785.0 375.1Q785.4 376.1 785.4 377.5L785.4 377.5L785.4 378.3L776.2 378.3L776.2 376.4L782.6 376.4Q782.6 375.8 782.3 375.3Q782.0 374.8 781.5 374.5Q781.0 374.2 780.4 374.2L780.4 374.2Q779.7 374.2 779.1 374.5Q778.6 374.8 778.3 375.4Q778.0 375.9 778.0 376.5L778.0 376.5L778.0 378.3Q778.0 379.1 778.3 379.7Q778.6 380.3 779.2 380.6Q779.7 381.0 780.5 381.0L780.5 381.0Q781.0 381.0 781.4 380.8Q781.8 380.7 782.1 380.4Q782.4 380.1 782.6 379.7L782.6 379.7L785.4 379.9Q785.2 380.9 784.5 381.6Q783.8 382.4 782.8 382.8Q781.8 383.2 780.4 383.2Z " opacity="0.8"/></g></svg>